<svg width="16" height="20" viewBox="0 0 16 20" fill="none" xmlns="http://www.w3.org/2000/svg">
<circle cx="7.5" cy="5.5" r="5" stroke="white"/>
<path d="M15.5 16.5C15.5 16.8178 15.3549 17.16 15.0118 17.5148C14.6665 17.8721 14.1426 18.2166 13.4564 18.5168C12.0856 19.1165 10.1569 19.5 8 19.5C5.84314 19.5 3.91439 19.1165 2.54356 18.5168C1.8574 18.2166 1.33351 17.8721 0.988154 17.5148C0.64512 17.16 0.5 16.8178 0.5 16.5C0.5 16.1822 0.64512 15.84 0.988154 15.4852C1.33351 15.1279 1.8574 14.7834 2.54356 14.4832C3.91439 13.8835 5.84314 13.5 8 13.5C10.1569 13.5 12.0856 13.8835 13.4564 14.4832C14.1426 14.7834 14.6665 15.1279 15.0118 15.4852C15.3549 15.84 15.5 16.1822 15.5 16.5Z" stroke="white"/>
</svg>
